<?xml version="1.0" encoding="UTF-8" standalone="no"?>
<svg width="240" height="80" xmlns="http://www.w3.org/2000/svg">
  <!-- Background rectangle with rounded corners -->
  <rect width="240" height="80" rx="10" ry="10" fill="#ffffff" stroke="#e0e0e0" stroke-width="2"/>
  
  <!-- Main icon - speech bubble with star -->
  <path d="M50,25 L80,25 C85,25 90,30 90,35 L90,50 C90,55 85,60 80,60 L65,60 L55,70 L55,60 L50,60 C45,60 40,55 40,50 L40,35 C40,30 45,25 50,25 Z" fill="#f5f5f5" stroke="#333333" stroke-width="2"/>
  <polygon points="65,32 68,42 78,42 70,48 73,58 65,52 57,58 60,48 52,42 62,42" fill="#FF9900" stroke="#232F3E" stroke-width="1"/>
  
  <!-- Text elements -->
  <text x="120" y="40" font-family="Arial, sans-serif" font-size="16" font-weight="bold" fill="#232F3E">Review Analyzer</text>
  
  <!-- Retailer names -->
  <text x="100" y="60" font-family="Arial, sans-serif" font-size="14" text-anchor="end" fill="#FF9900">Amazon</text>
  <text x="105" y="60" font-family="Arial, sans-serif" font-size="14" fill="#333333">/</text>
  <text x="110" y="60" font-family="Arial, sans-serif" font-size="14" fill="#0071DC">Walmart</text>
</svg>
